<?xml version="1.0" encoding="utf-8" standalone="no"?>
<!DOCTYPE svg PUBLIC "-//W3C//DTD SVG 1.1//EN"
  "http://www.w3.org/Graphics/SVG/1.1/DTD/svg11.dtd">
<svg xmlns:xlink="http://www.w3.org/1999/xlink" width="504pt" height="360pt" viewBox="0 0 504 360" xmlns="http://www.w3.org/2000/svg" version="1.1">
 <metadata>
  <rdf:RDF xmlns:dc="http://purl.org/dc/elements/1.1/" xmlns:cc="http://creativecommons.org/ns#" xmlns:rdf="http://www.w3.org/1999/02/22-rdf-syntax-ns#">
   <cc:Work>
    <dc:type rdf:resource="http://purl.org/dc/dcmitype/StillImage"/>
    <dc:date>2025-07-03T04:37:13.759193</dc:date>
    <dc:format>image/svg+xml</dc:format>
    <dc:creator>
     <cc:Agent>
      <dc:title>Matplotlib v3.10.3, https://matplotlib.org/</dc:title>
     </cc:Agent>
    </dc:creator>
   </cc:Work>
  </rdf:RDF>
 </metadata>
 <defs>
  <style type="text/css">*{stroke-linejoin: round; stroke-linecap: butt}</style>
 </defs>
 <g id="figure_1">
  <g id="patch_1">
   <path d="M 0 360 
L 504 360 
L 504 0 
L 0 0 
z
" style="fill: #ffffff"/>
  </g>
  <g id="axes_1">
   <g id="patch_2">
    <path d="M 56.132054 314.728 
L 493.2 314.728 
L 493.2 10.8 
L 56.132054 10.8 
z
" style="fill: #ffffff"/>
   </g>
   <g id="matplotlib.axis_1">
    <g id="xtick_1">
     <g id="line2d_1">
      <path d="M 110.657725 314.728 
L 110.657725 10.8 
" clip-path="url(#p30d128aefd)" style="fill: none; stroke-dasharray: 0.3,0.495; stroke-dashoffset: 0; stroke: #808080; stroke-width: 0.3"/>
     </g>
     <g id="line2d_2">
      <defs>
       <path id="m5c9388317c" d="M 0 0 
L 0 3.5 
" style="stroke: #000000; stroke-width: 0.8"/>
      </defs>
      <g>
       <use xlink:href="#m5c9388317c" x="110.657725" y="314.728" style="stroke: #000000; stroke-width: 0.8"/>
      </g>
     </g>
     <g id="text_1">
      <!-- $\mathdefault{10^{-3}}$ -->
      <g transform="translate(98.907725 329.326437) scale(0.1 -0.1)">
       <defs>
        <path id="DejaVuSans-31" d="M 794 531 
L 1825 531 
L 1825 4091 
L 703 3866 
L 703 4441 
L 1819 4666 
L 2450 4666 
L 2450 531 
L 3481 531 
L 3481 0 
L 794 0 
L 794 531 
z
" transform="scale(0.015625)"/>
        <path id="DejaVuSans-30" d="M 2034 4250 
Q 1547 4250 1301 3770 
Q 1056 3291 1056 2328 
Q 1056 1369 1301 889 
Q 1547 409 2034 409 
Q 2525 409 2770 889 
Q 3016 1369 3016 2328 
Q 3016 3291 2770 3770 
Q 2525 4250 2034 4250 
z
M 2034 4750 
Q 2819 4750 3233 4129 
Q 3647 3509 3647 2328 
Q 3647 1150 3233 529 
Q 2819 -91 2034 -91 
Q 1250 -91 836 529 
Q 422 1150 422 2328 
Q 422 3509 836 4129 
Q 1250 4750 2034 4750 
z
" transform="scale(0.015625)"/>
        <path id="DejaVuSans-2212" d="M 678 2272 
L 4684 2272 
L 4684 1741 
L 678 1741 
L 678 2272 
z
" transform="scale(0.015625)"/>
        <path id="DejaVuSans-33" d="M 2597 2516 
Q 3050 2419 3304 2112 
Q 3559 1806 3559 1356 
Q 3559 666 3084 287 
Q 2609 -91 1734 -91 
Q 1441 -91 1130 -33 
Q 819 25 488 141 
L 488 750 
Q 750 597 1062 519 
Q 1375 441 1716 441 
Q 2309 441 2620 675 
Q 2931 909 2931 1356 
Q 2931 1769 2642 2001 
Q 2353 2234 1838 2234 
L 1294 2234 
L 1294 2753 
L 1863 2753 
Q 2328 2753 2575 2939 
Q 2822 3125 2822 3475 
Q 2822 3834 2567 4026 
Q 2313 4219 1838 4219 
Q 1578 4219 1281 4162 
Q 984 4106 628 3988 
L 628 4550 
Q 988 4650 1302 4700 
Q 1616 4750 1894 4750 
Q 2613 4750 3031 4423 
Q 3450 4097 3450 3541 
Q 3450 3153 3228 2886 
Q 3006 2619 2597 2516 
z
" transform="scale(0.015625)"/>
       </defs>
       <use xlink:href="#DejaVuSans-31" transform="translate(0 0.765625)"/>
       <use xlink:href="#DejaVuSans-30" transform="translate(63.623047 0.765625)"/>
       <use xlink:href="#DejaVuSans-2212" transform="translate(128.203125 39.046875) scale(0.7)"/>
       <use xlink:href="#DejaVuSans-33" transform="translate(186.855469 39.046875) scale(0.7)"/>
      </g>
     </g>
    </g>
    <g id="xtick_2">
     <g id="line2d_3">
      <path d="M 189.447747 314.728 
L 189.447747 10.8 
" clip-path="url(#p30d128aefd)" style="fill: none; stroke-dasharray: 0.3,0.495; stroke-dashoffset: 0; stroke: #808080; stroke-width: 0.3"/>
     </g>
     <g id="line2d_4">
      <g>
       <use xlink:href="#m5c9388317c" x="189.447747" y="314.728" style="stroke: #000000; stroke-width: 0.8"/>
      </g>
     </g>
     <g id="text_2">
      <!-- $\mathdefault{10^{-2}}$ -->
      <g transform="translate(177.697747 329.326437) scale(0.1 -0.1)">
       <defs>
        <path id="DejaVuSans-32" d="M 1228 531 
L 3431 531 
L 3431 0 
L 469 0 
L 469 531 
Q 828 903 1448 1529 
Q 2069 2156 2228 2338 
Q 2531 2678 2651 2914 
Q 2772 3150 2772 3378 
Q 2772 3750 2511 3984 
Q 2250 4219 1831 4219 
Q 1534 4219 1204 4116 
Q 875 4013 500 3803 
L 500 4441 
Q 881 4594 1212 4672 
Q 1544 4750 1819 4750 
Q 2544 4750 2975 4387 
Q 3406 4025 3406 3419 
Q 3406 3131 3298 2873 
Q 3191 2616 2906 2266 
Q 2828 2175 2409 1742 
Q 1991 1309 1228 531 
z
" transform="scale(0.015625)"/>
       </defs>
       <use xlink:href="#DejaVuSans-31" transform="translate(0 0.765625)"/>
       <use xlink:href="#DejaVuSans-30" transform="translate(63.623047 0.765625)"/>
       <use xlink:href="#DejaVuSans-2212" transform="translate(128.203125 39.046875) scale(0.7)"/>
       <use xlink:href="#DejaVuSans-32" transform="translate(186.855469 39.046875) scale(0.7)"/>
      </g>
     </g>
    </g>
    <g id="xtick_3">
     <g id="line2d_5">
      <path d="M 268.237769 314.728 
L 268.237769 10.8 
" clip-path="url(#p30d128aefd)" style="fill: none; stroke-dasharray: 0.3,0.495; stroke-dashoffset: 0; stroke: #808080; stroke-width: 0.3"/>
     </g>
     <g id="line2d_6">
      <g>
       <use xlink:href="#m5c9388317c" x="268.237769" y="314.728" style="stroke: #000000; stroke-width: 0.8"/>
      </g>
     </g>
     <g id="text_3">
      <!-- $\mathdefault{10^{-1}}$ -->
      <g transform="translate(256.487769 329.326437) scale(0.1 -0.1)">
       <use xlink:href="#DejaVuSans-31" transform="translate(0 0.684375)"/>
       <use xlink:href="#DejaVuSans-30" transform="translate(63.623047 0.684375)"/>
       <use xlink:href="#DejaVuSans-2212" transform="translate(128.203125 38.965625) scale(0.7)"/>
       <use xlink:href="#DejaVuSans-31" transform="translate(186.855469 38.965625) scale(0.7)"/>
      </g>
     </g>
    </g>
    <g id="xtick_4">
     <g id="line2d_7">
      <path d="M 347.02779 314.728 
L 347.02779 10.8 
" clip-path="url(#p30d128aefd)" style="fill: none; stroke-dasharray: 0.3,0.495; stroke-dashoffset: 0; stroke: #808080; stroke-width: 0.3"/>
     </g>
     <g id="line2d_8">
      <g>
       <use xlink:href="#m5c9388317c" x="347.02779" y="314.728" style="stroke: #000000; stroke-width: 0.8"/>
      </g>
     </g>
     <g id="text_4">
      <!-- $\mathdefault{10^{0}}$ -->
      <g transform="translate(338.22779 329.326437) scale(0.1 -0.1)">
       <use xlink:href="#DejaVuSans-31" transform="translate(0 0.765625)"/>
       <use xlink:href="#DejaVuSans-30" transform="translate(63.623047 0.765625)"/>
       <use xlink:href="#DejaVuSans-30" transform="translate(128.203125 39.046875) scale(0.7)"/>
      </g>
     </g>
    </g>
    <g id="xtick_5">
     <g id="line2d_9">
      <path d="M 425.817812 314.728 
L 425.817812 10.8 
" clip-path="url(#p30d128aefd)" style="fill: none; stroke-dasharray: 0.3,0.495; stroke-dashoffset: 0; stroke: #808080; stroke-width: 0.3"/>
     </g>
     <g id="line2d_10">
      <g>
       <use xlink:href="#m5c9388317c" x="425.817812" y="314.728" style="stroke: #000000; stroke-width: 0.8"/>
      </g>
     </g>
     <g id="text_5">
      <!-- $\mathdefault{10^{1}}$ -->
      <g transform="translate(417.017812 329.326437) scale(0.1 -0.1)">
       <use xlink:href="#DejaVuSans-31" transform="translate(0 0.684375)"/>
       <use xlink:href="#DejaVuSans-30" transform="translate(63.623047 0.684375)"/>
       <use xlink:href="#DejaVuSans-31" transform="translate(128.203125 38.965625) scale(0.7)"/>
      </g>
     </g>
    </g>
    <g id="xtick_6">
     <g id="line2d_11">
      <defs>
       <path id="m4d7b8e73cc" d="M 0 0 
L 0 2 
" style="stroke: #000000; stroke-width: 0.6"/>
      </defs>
      <g>
       <use xlink:href="#m4d7b8e73cc" x="69.460097" y="314.728" style="stroke: #000000; stroke-width: 0.6"/>
      </g>
     </g>
    </g>
    <g id="xtick_7">
     <g id="line2d_12">
      <g>
       <use xlink:href="#m4d7b8e73cc" x="79.304023" y="314.728" style="stroke: #000000; stroke-width: 0.6"/>
      </g>
     </g>
    </g>
    <g id="xtick_8">
     <g id="line2d_13">
      <g>
       <use xlink:href="#m4d7b8e73cc" x="86.939565" y="314.728" style="stroke: #000000; stroke-width: 0.6"/>
      </g>
     </g>
    </g>
    <g id="xtick_9">
     <g id="line2d_14">
      <g>
       <use xlink:href="#m4d7b8e73cc" x="93.178257" y="314.728" style="stroke: #000000; stroke-width: 0.6"/>
      </g>
     </g>
    </g>
    <g id="xtick_10">
     <g id="line2d_15">
      <g>
       <use xlink:href="#m4d7b8e73cc" x="98.452996" y="314.728" style="stroke: #000000; stroke-width: 0.6"/>
      </g>
     </g>
    </g>
    <g id="xtick_11">
     <g id="line2d_16">
      <g>
       <use xlink:href="#m4d7b8e73cc" x="103.022183" y="314.728" style="stroke: #000000; stroke-width: 0.6"/>
      </g>
     </g>
    </g>
    <g id="xtick_12">
     <g id="line2d_17">
      <g>
       <use xlink:href="#m4d7b8e73cc" x="107.052491" y="314.728" style="stroke: #000000; stroke-width: 0.6"/>
      </g>
     </g>
    </g>
    <g id="xtick_13">
     <g id="line2d_18">
      <g>
       <use xlink:href="#m4d7b8e73cc" x="134.375885" y="314.728" style="stroke: #000000; stroke-width: 0.6"/>
      </g>
     </g>
    </g>
    <g id="xtick_14">
     <g id="line2d_19">
      <g>
       <use xlink:href="#m4d7b8e73cc" x="148.250119" y="314.728" style="stroke: #000000; stroke-width: 0.6"/>
      </g>
     </g>
    </g>
    <g id="xtick_15">
     <g id="line2d_20">
      <g>
       <use xlink:href="#m4d7b8e73cc" x="158.094045" y="314.728" style="stroke: #000000; stroke-width: 0.6"/>
      </g>
     </g>
    </g>
    <g id="xtick_16">
     <g id="line2d_21">
      <g>
       <use xlink:href="#m4d7b8e73cc" x="165.729587" y="314.728" style="stroke: #000000; stroke-width: 0.6"/>
      </g>
     </g>
    </g>
    <g id="xtick_17">
     <g id="line2d_22">
      <g>
       <use xlink:href="#m4d7b8e73cc" x="171.968279" y="314.728" style="stroke: #000000; stroke-width: 0.6"/>
      </g>
     </g>
    </g>
    <g id="xtick_18">
     <g id="line2d_23">
      <g>
       <use xlink:href="#m4d7b8e73cc" x="177.243018" y="314.728" style="stroke: #000000; stroke-width: 0.6"/>
      </g>
     </g>
    </g>
    <g id="xtick_19">
     <g id="line2d_24">
      <g>
       <use xlink:href="#m4d7b8e73cc" x="181.812205" y="314.728" style="stroke: #000000; stroke-width: 0.6"/>
      </g>
     </g>
    </g>
    <g id="xtick_20">
     <g id="line2d_25">
      <g>
       <use xlink:href="#m4d7b8e73cc" x="185.842513" y="314.728" style="stroke: #000000; stroke-width: 0.6"/>
      </g>
     </g>
    </g>
    <g id="xtick_21">
     <g id="line2d_26">
      <g>
       <use xlink:href="#m4d7b8e73cc" x="213.165907" y="314.728" style="stroke: #000000; stroke-width: 0.6"/>
      </g>
     </g>
    </g>
    <g id="xtick_22">
     <g id="line2d_27">
      <g>
       <use xlink:href="#m4d7b8e73cc" x="227.040141" y="314.728" style="stroke: #000000; stroke-width: 0.6"/>
      </g>
     </g>
    </g>
    <g id="xtick_23">
     <g id="line2d_28">
      <g>
       <use xlink:href="#m4d7b8e73cc" x="236.884066" y="314.728" style="stroke: #000000; stroke-width: 0.6"/>
      </g>
     </g>
    </g>
    <g id="xtick_24">
     <g id="line2d_29">
      <g>
       <use xlink:href="#m4d7b8e73cc" x="244.519609" y="314.728" style="stroke: #000000; stroke-width: 0.6"/>
      </g>
     </g>
    </g>
    <g id="xtick_25">
     <g id="line2d_30">
      <g>
       <use xlink:href="#m4d7b8e73cc" x="250.758301" y="314.728" style="stroke: #000000; stroke-width: 0.6"/>
      </g>
     </g>
    </g>
    <g id="xtick_26">
     <g id="line2d_31">
      <g>
       <use xlink:href="#m4d7b8e73cc" x="256.03304" y="314.728" style="stroke: #000000; stroke-width: 0.6"/>
      </g>
     </g>
    </g>
    <g id="xtick_27">
     <g id="line2d_32">
      <g>
       <use xlink:href="#m4d7b8e73cc" x="260.602226" y="314.728" style="stroke: #000000; stroke-width: 0.6"/>
      </g>
     </g>
    </g>
    <g id="xtick_28">
     <g id="line2d_33">
      <g>
       <use xlink:href="#m4d7b8e73cc" x="264.632535" y="314.728" style="stroke: #000000; stroke-width: 0.6"/>
      </g>
     </g>
    </g>
    <g id="xtick_29">
     <g id="line2d_34">
      <g>
       <use xlink:href="#m4d7b8e73cc" x="291.955928" y="314.728" style="stroke: #000000; stroke-width: 0.6"/>
      </g>
     </g>
    </g>
    <g id="xtick_30">
     <g id="line2d_35">
      <g>
       <use xlink:href="#m4d7b8e73cc" x="305.830163" y="314.728" style="stroke: #000000; stroke-width: 0.6"/>
      </g>
     </g>
    </g>
    <g id="xtick_31">
     <g id="line2d_36">
      <g>
       <use xlink:href="#m4d7b8e73cc" x="315.674088" y="314.728" style="stroke: #000000; stroke-width: 0.6"/>
      </g>
     </g>
    </g>
    <g id="xtick_32">
     <g id="line2d_37">
      <g>
       <use xlink:href="#m4d7b8e73cc" x="323.30963" y="314.728" style="stroke: #000000; stroke-width: 0.6"/>
      </g>
     </g>
    </g>
    <g id="xtick_33">
     <g id="line2d_38">
      <g>
       <use xlink:href="#m4d7b8e73cc" x="329.548323" y="314.728" style="stroke: #000000; stroke-width: 0.6"/>
      </g>
     </g>
    </g>
    <g id="xtick_34">
     <g id="line2d_39">
      <g>
       <use xlink:href="#m4d7b8e73cc" x="334.823062" y="314.728" style="stroke: #000000; stroke-width: 0.6"/>
      </g>
     </g>
    </g>
    <g id="xtick_35">
     <g id="line2d_40">
      <g>
       <use xlink:href="#m4d7b8e73cc" x="339.392248" y="314.728" style="stroke: #000000; stroke-width: 0.6"/>
      </g>
     </g>
    </g>
    <g id="xtick_36">
     <g id="line2d_41">
      <g>
       <use xlink:href="#m4d7b8e73cc" x="343.422557" y="314.728" style="stroke: #000000; stroke-width: 0.6"/>
      </g>
     </g>
    </g>
    <g id="xtick_37">
     <g id="line2d_42">
      <g>
       <use xlink:href="#m4d7b8e73cc" x="370.74595" y="314.728" style="stroke: #000000; stroke-width: 0.6"/>
      </g>
     </g>
    </g>
    <g id="xtick_38">
     <g id="line2d_43">
      <g>
       <use xlink:href="#m4d7b8e73cc" x="384.620185" y="314.728" style="stroke: #000000; stroke-width: 0.6"/>
      </g>
     </g>
    </g>
    <g id="xtick_39">
     <g id="line2d_44">
      <g>
       <use xlink:href="#m4d7b8e73cc" x="394.46411" y="314.728" style="stroke: #000000; stroke-width: 0.6"/>
      </g>
     </g>
    </g>
    <g id="xtick_40">
     <g id="line2d_45">
      <g>
       <use xlink:href="#m4d7b8e73cc" x="402.099652" y="314.728" style="stroke: #000000; stroke-width: 0.6"/>
      </g>
     </g>
    </g>
    <g id="xtick_41">
     <g id="line2d_46">
      <g>
       <use xlink:href="#m4d7b8e73cc" x="408.338345" y="314.728" style="stroke: #000000; stroke-width: 0.6"/>
      </g>
     </g>
    </g>
    <g id="xtick_42">
     <g id="line2d_47">
      <g>
       <use xlink:href="#m4d7b8e73cc" x="413.613084" y="314.728" style="stroke: #000000; stroke-width: 0.6"/>
      </g>
     </g>
    </g>
    <g id="xtick_43">
     <g id="line2d_48">
      <g>
       <use xlink:href="#m4d7b8e73cc" x="418.18227" y="314.728" style="stroke: #000000; stroke-width: 0.6"/>
      </g>
     </g>
    </g>
    <g id="xtick_44">
     <g id="line2d_49">
      <g>
       <use xlink:href="#m4d7b8e73cc" x="422.212579" y="314.728" style="stroke: #000000; stroke-width: 0.6"/>
      </g>
     </g>
    </g>
    <g id="xtick_45">
     <g id="line2d_50">
      <g>
       <use xlink:href="#m4d7b8e73cc" x="449.535972" y="314.728" style="stroke: #000000; stroke-width: 0.6"/>
      </g>
     </g>
    </g>
    <g id="xtick_46">
     <g id="line2d_51">
      <g>
       <use xlink:href="#m4d7b8e73cc" x="463.410206" y="314.728" style="stroke: #000000; stroke-width: 0.6"/>
      </g>
     </g>
    </g>
    <g id="xtick_47">
     <g id="line2d_52">
      <g>
       <use xlink:href="#m4d7b8e73cc" x="473.254132" y="314.728" style="stroke: #000000; stroke-width: 0.6"/>
      </g>
     </g>
    </g>
    <g id="xtick_48">
     <g id="line2d_53">
      <g>
       <use xlink:href="#m4d7b8e73cc" x="480.889674" y="314.728" style="stroke: #000000; stroke-width: 0.6"/>
      </g>
     </g>
    </g>
    <g id="xtick_49">
     <g id="line2d_54">
      <g>
       <use xlink:href="#m4d7b8e73cc" x="487.128366" y="314.728" style="stroke: #000000; stroke-width: 0.6"/>
      </g>
     </g>
    </g>
    <g id="xtick_50">
     <g id="line2d_55">
      <g>
       <use xlink:href="#m4d7b8e73cc" x="492.403105" y="314.728" style="stroke: #000000; stroke-width: 0.6"/>
      </g>
     </g>
    </g>
    <g id="text_6">
     <!-- Corriente de excitación secundaria Ie [A] -->
     <g transform="translate(172.446496 343.004562) scale(0.1 -0.1)">
      <defs>
       <path id="DejaVuSans-43" d="M 4122 4306 
L 4122 3641 
Q 3803 3938 3442 4084 
Q 3081 4231 2675 4231 
Q 1875 4231 1450 3742 
Q 1025 3253 1025 2328 
Q 1025 1406 1450 917 
Q 1875 428 2675 428 
Q 3081 428 3442 575 
Q 3803 722 4122 1019 
L 4122 359 
Q 3791 134 3420 21 
Q 3050 -91 2638 -91 
Q 1578 -91 968 557 
Q 359 1206 359 2328 
Q 359 3453 968 4101 
Q 1578 4750 2638 4750 
Q 3056 4750 3426 4639 
Q 3797 4528 4122 4306 
z
" transform="scale(0.015625)"/>
       <path id="DejaVuSans-6f" d="M 1959 3097 
Q 1497 3097 1228 2736 
Q 959 2375 959 1747 
Q 959 1119 1226 758 
Q 1494 397 1959 397 
Q 2419 397 2687 759 
Q 2956 1122 2956 1747 
Q 2956 2369 2687 2733 
Q 2419 3097 1959 3097 
z
M 1959 3584 
Q 2709 3584 3137 3096 
Q 3566 2609 3566 1747 
Q 3566 888 3137 398 
Q 2709 -91 1959 -91 
Q 1206 -91 779 398 
Q 353 888 353 1747 
Q 353 2609 779 3096 
Q 1206 3584 1959 3584 
z
" transform="scale(0.015625)"/>
       <path id="DejaVuSans-72" d="M 2631 2963 
Q 2534 3019 2420 3045 
Q 2306 3072 2169 3072 
Q 1681 3072 1420 2755 
Q 1159 2438 1159 1844 
L 1159 0 
L 581 0 
L 581 3500 
L 1159 3500 
L 1159 2956 
Q 1341 3275 1631 3429 
Q 1922 3584 2338 3584 
Q 2397 3584 2469 3576 
Q 2541 3569 2628 3553 
L 2631 2963 
z
" transform="scale(0.015625)"/>
       <path id="DejaVuSans-69" d="M 603 3500 
L 1178 3500 
L 1178 0 
L 603 0 
L 603 3500 
z
M 603 4863 
L 1178 4863 
L 1178 4134 
L 603 4134 
L 603 4863 
z
" transform="scale(0.015625)"/>
       <path id="DejaVuSans-65" d="M 3597 1894 
L 3597 1613 
L 953 1613 
Q 991 1019 1311 708 
Q 1631 397 2203 397 
Q 2534 397 2845 478 
Q 3156 559 3463 722 
L 3463 178 
Q 3153 47 2828 -22 
Q 2503 -91 2169 -91 
Q 1331 -91 842 396 
Q 353 884 353 1716 
Q 353 2575 817 3079 
Q 1281 3584 2069 3584 
Q 2775 3584 3186 3129 
Q 3597 2675 3597 1894 
z
M 3022 2063 
Q 3016 2534 2758 2815 
Q 2500 3097 2075 3097 
Q 1594 3097 1305 2825 
Q 1016 2553 972 2059 
L 3022 2063 
z
" transform="scale(0.015625)"/>
       <path id="DejaVuSans-6e" d="M 3513 2113 
L 3513 0 
L 2938 0 
L 2938 2094 
Q 2938 2591 2744 2837 
Q 2550 3084 2163 3084 
Q 1697 3084 1428 2787 
Q 1159 2491 1159 1978 
L 1159 0 
L 581 0 
L 581 3500 
L 1159 3500 
L 1159 2956 
Q 1366 3272 1645 3428 
Q 1925 3584 2291 3584 
Q 2894 3584 3203 3211 
Q 3513 2838 3513 2113 
z
" transform="scale(0.015625)"/>
       <path id="DejaVuSans-74" d="M 1172 4494 
L 1172 3500 
L 2356 3500 
L 2356 3053 
L 1172 3053 
L 1172 1153 
Q 1172 725 1289 603 
Q 1406 481 1766 481 
L 2356 481 
L 2356 0 
L 1766 0 
Q 1100 0 847 248 
Q 594 497 594 1153 
L 594 3053 
L 172 3053 
L 172 3500 
L 594 3500 
L 594 4494 
L 1172 4494 
z
" transform="scale(0.015625)"/>
       <path id="DejaVuSans-20" transform="scale(0.015625)"/>
       <path id="DejaVuSans-64" d="M 2906 2969 
L 2906 4863 
L 3481 4863 
L 3481 0 
L 2906 0 
L 2906 525 
Q 2725 213 2448 61 
Q 2172 -91 1784 -91 
Q 1150 -91 751 415 
Q 353 922 353 1747 
Q 353 2572 751 3078 
Q 1150 3584 1784 3584 
Q 2172 3584 2448 3432 
Q 2725 3281 2906 2969 
z
M 947 1747 
Q 947 1113 1208 752 
Q 1469 391 1925 391 
Q 2381 391 2643 752 
Q 2906 1113 2906 1747 
Q 2906 2381 2643 2742 
Q 2381 3103 1925 3103 
Q 1469 3103 1208 2742 
Q 947 2381 947 1747 
z
" transform="scale(0.015625)"/>
       <path id="DejaVuSans-78" d="M 3513 3500 
L 2247 1797 
L 3578 0 
L 2900 0 
L 1881 1375 
L 863 0 
L 184 0 
L 1544 1831 
L 300 3500 
L 978 3500 
L 1906 2253 
L 2834 3500 
L 3513 3500 
z
" transform="scale(0.015625)"/>
       <path id="DejaVuSans-63" d="M 3122 3366 
L 3122 2828 
Q 2878 2963 2633 3030 
Q 2388 3097 2138 3097 
Q 1578 3097 1268 2742 
Q 959 2388 959 1747 
Q 959 1106 1268 751 
Q 1578 397 2138 397 
Q 2388 397 2633 464 
Q 2878 531 3122 666 
L 3122 134 
Q 2881 22 2623 -34 
Q 2366 -91 2075 -91 
Q 1284 -91 818 406 
Q 353 903 353 1747 
Q 353 2603 823 3093 
Q 1294 3584 2113 3584 
Q 2378 3584 2631 3529 
Q 2884 3475 3122 3366 
z
" transform="scale(0.015625)"/>
       <path id="DejaVuSans-61" d="M 2194 1759 
Q 1497 1759 1228 1600 
Q 959 1441 959 1056 
Q 959 750 1161 570 
Q 1363 391 1709 391 
Q 2188 391 2477 730 
Q 2766 1069 2766 1631 
L 2766 1759 
L 2194 1759 
z
M 3341 1997 
L 3341 0 
L 2766 0 
L 2766 531 
Q 2569 213 2275 61 
Q 1981 -91 1556 -91 
Q 1019 -91 701 211 
Q 384 513 384 1019 
Q 384 1609 779 1909 
Q 1175 2209 1959 2209 
L 2766 2209 
L 2766 2266 
Q 2766 2663 2505 2880 
Q 2244 3097 1772 3097 
Q 1472 3097 1187 3025 
Q 903 2953 641 2809 
L 641 3341 
Q 956 3463 1253 3523 
Q 1550 3584 1831 3584 
Q 2591 3584 2966 3190 
Q 3341 2797 3341 1997 
z
" transform="scale(0.015625)"/>
       <path id="DejaVuSans-f3" d="M 1959 3097 
Q 1497 3097 1228 2736 
Q 959 2375 959 1747 
Q 959 1119 1226 758 
Q 1494 397 1959 397 
Q 2419 397 2687 759 
Q 2956 1122 2956 1747 
Q 2956 2369 2687 2733 
Q 2419 3097 1959 3097 
z
M 1959 3584 
Q 2709 3584 3137 3096 
Q 3566 2609 3566 1747 
Q 3566 888 3137 398 
Q 2709 -91 1959 -91 
Q 1206 -91 779 398 
Q 353 888 353 1747 
Q 353 2609 779 3096 
Q 1206 3584 1959 3584 
z
M 2394 5119 
L 3016 5119 
L 1998 3944 
L 1519 3944 
L 2394 5119 
z
" transform="scale(0.015625)"/>
       <path id="DejaVuSans-73" d="M 2834 3397 
L 2834 2853 
Q 2591 2978 2328 3040 
Q 2066 3103 1784 3103 
Q 1356 3103 1142 2972 
Q 928 2841 928 2578 
Q 928 2378 1081 2264 
Q 1234 2150 1697 2047 
L 1894 2003 
Q 2506 1872 2764 1633 
Q 3022 1394 3022 966 
Q 3022 478 2636 193 
Q 2250 -91 1575 -91 
Q 1294 -91 989 -36 
Q 684 19 347 128 
L 347 722 
Q 666 556 975 473 
Q 1284 391 1588 391 
Q 1994 391 2212 530 
Q 2431 669 2431 922 
Q 2431 1156 2273 1281 
Q 2116 1406 1581 1522 
L 1381 1569 
Q 847 1681 609 1914 
Q 372 2147 372 2553 
Q 372 3047 722 3315 
Q 1072 3584 1716 3584 
Q 2034 3584 2315 3537 
Q 2597 3491 2834 3397 
z
" transform="scale(0.015625)"/>
       <path id="DejaVuSans-75" d="M 544 1381 
L 544 3500 
L 1119 3500 
L 1119 1403 
Q 1119 906 1312 657 
Q 1506 409 1894 409 
Q 2359 409 2629 706 
Q 2900 1003 2900 1516 
L 2900 3500 
L 3475 3500 
L 3475 0 
L 2900 0 
L 2900 538 
Q 2691 219 2414 64 
Q 2138 -91 1772 -91 
Q 1169 -91 856 284 
Q 544 659 544 1381 
z
M 1991 3584 
L 1991 3584 
z
" transform="scale(0.015625)"/>
       <path id="DejaVuSans-49" d="M 628 4666 
L 1259 4666 
L 1259 0 
L 628 0 
L 628 4666 
z
" transform="scale(0.015625)"/>
       <path id="DejaVuSans-5b" d="M 550 4863 
L 1875 4863 
L 1875 4416 
L 1125 4416 
L 1125 -397 
L 1875 -397 
L 1875 -844 
L 550 -844 
L 550 4863 
z
" transform="scale(0.015625)"/>
       <path id="DejaVuSans-41" d="M 2188 4044 
L 1331 1722 
L 3047 1722 
L 2188 4044 
z
M 1831 4666 
L 2547 4666 
L 4325 0 
L 3669 0 
L 3244 1197 
L 1141 1197 
L 716 0 
L 50 0 
L 1831 4666 
z
" transform="scale(0.015625)"/>
       <path id="DejaVuSans-5d" d="M 1947 4863 
L 1947 -844 
L 622 -844 
L 622 -397 
L 1369 -397 
L 1369 4416 
L 622 4416 
L 622 4863 
L 1947 4863 
z
" transform="scale(0.015625)"/>
      </defs>
      <use xlink:href="#DejaVuSans-43"/>
      <use xlink:href="#DejaVuSans-6f" transform="translate(69.824219 0)"/>
      <use xlink:href="#DejaVuSans-72" transform="translate(131.005859 0)"/>
      <use xlink:href="#DejaVuSans-72" transform="translate(170.369141 0)"/>
      <use xlink:href="#DejaVuSans-69" transform="translate(211.482422 0)"/>
      <use xlink:href="#DejaVuSans-65" transform="translate(239.265625 0)"/>
      <use xlink:href="#DejaVuSans-6e" transform="translate(300.789062 0)"/>
      <use xlink:href="#DejaVuSans-74" transform="translate(364.167969 0)"/>
      <use xlink:href="#DejaVuSans-65" transform="translate(403.376953 0)"/>
      <use xlink:href="#DejaVuSans-20" transform="translate(464.900391 0)"/>
      <use xlink:href="#DejaVuSans-64" transform="translate(496.6875 0)"/>
      <use xlink:href="#DejaVuSans-65" transform="translate(560.164062 0)"/>
      <use xlink:href="#DejaVuSans-20" transform="translate(621.6875 0)"/>
      <use xlink:href="#DejaVuSans-65" transform="translate(653.474609 0)"/>
      <use xlink:href="#DejaVuSans-78" transform="translate(713.248047 0)"/>
      <use xlink:href="#DejaVuSans-63" transform="translate(770.677734 0)"/>
      <use xlink:href="#DejaVuSans-69" transform="translate(825.658203 0)"/>
      <use xlink:href="#DejaVuSans-74" transform="translate(853.441406 0)"/>
      <use xlink:href="#DejaVuSans-61" transform="translate(892.650391 0)"/>
      <use xlink:href="#DejaVuSans-63" transform="translate(953.929688 0)"/>
      <use xlink:href="#DejaVuSans-69" transform="translate(1008.910156 0)"/>
      <use xlink:href="#DejaVuSans-f3" transform="translate(1036.693359 0)"/>
      <use xlink:href="#DejaVuSans-6e" transform="translate(1097.875 0)"/>
      <use xlink:href="#DejaVuSans-20" transform="translate(1161.253906 0)"/>
      <use xlink:href="#DejaVuSans-73" transform="translate(1193.041016 0)"/>
      <use xlink:href="#DejaVuSans-65" transform="translate(1245.140625 0)"/>
      <use xlink:href="#DejaVuSans-63" transform="translate(1306.664062 0)"/>
      <use xlink:href="#DejaVuSans-75" transform="translate(1361.644531 0)"/>
      <use xlink:href="#DejaVuSans-6e" transform="translate(1425.023438 0)"/>
      <use xlink:href="#DejaVuSans-64" transform="translate(1488.402344 0)"/>
      <use xlink:href="#DejaVuSans-61" transform="translate(1551.878906 0)"/>
      <use xlink:href="#DejaVuSans-72" transform="translate(1613.158203 0)"/>
      <use xlink:href="#DejaVuSans-69" transform="translate(1654.271484 0)"/>
      <use xlink:href="#DejaVuSans-61" transform="translate(1682.054688 0)"/>
      <use xlink:href="#DejaVuSans-20" transform="translate(1743.333984 0)"/>
      <use xlink:href="#DejaVuSans-49" transform="translate(1775.121094 0)"/>
      <use xlink:href="#DejaVuSans-65" transform="translate(1804.613281 0)"/>
      <use xlink:href="#DejaVuSans-20" transform="translate(1866.136719 0)"/>
      <use xlink:href="#DejaVuSans-5b" transform="translate(1897.923828 0)"/>
      <use xlink:href="#DejaVuSans-41" transform="translate(1936.9375 0)"/>
      <use xlink:href="#DejaVuSans-5d" transform="translate(2005.345703 0)"/>
     </g>
    </g>
   </g>
   <g id="matplotlib.axis_2">
    <g id="ytick_1">
     <g id="line2d_56">
      <path d="M 56.132054 261.372864 
L 493.2 261.372864 
" clip-path="url(#p30d128aefd)" style="fill: none; stroke-dasharray: 0.3,0.495; stroke-dashoffset: 0; stroke: #808080; stroke-width: 0.3"/>
     </g>
     <g id="line2d_57">
      <defs>
       <path id="mbcf2943483" d="M 0 0 
L -3.5 0 
" style="stroke: #000000; stroke-width: 0.8"/>
      </defs>
      <g>
       <use xlink:href="#mbcf2943483" x="56.132054" y="261.372864" style="stroke: #000000; stroke-width: 0.8"/>
      </g>
     </g>
     <g id="text_7">
      <!-- $\mathdefault{10^{-2}}$ -->
      <g transform="translate(25.632054 265.172082) scale(0.1 -0.1)">
       <use xlink:href="#DejaVuSans-31" transform="translate(0 0.765625)"/>
       <use xlink:href="#DejaVuSans-30" transform="translate(63.623047 0.765625)"/>
       <use xlink:href="#DejaVuSans-2212" transform="translate(128.203125 39.046875) scale(0.7)"/>
       <use xlink:href="#DejaVuSans-32" transform="translate(186.855469 39.046875) scale(0.7)"/>
      </g>
     </g>
    </g>
    <g id="ytick_2">
     <g id="line2d_58">
      <path d="M 56.132054 205.960046 
L 493.2 205.960046 
" clip-path="url(#p30d128aefd)" style="fill: none; stroke-dasharray: 0.3,0.495; stroke-dashoffset: 0; stroke: #808080; stroke-width: 0.3"/>
     </g>
     <g id="line2d_59">
      <g>
       <use xlink:href="#mbcf2943483" x="56.132054" y="205.960046" style="stroke: #000000; stroke-width: 0.8"/>
      </g>
     </g>
     <g id="text_8">
      <!-- $\mathdefault{10^{-1}}$ -->
      <g transform="translate(25.632054 209.759265) scale(0.1 -0.1)">
       <use xlink:href="#DejaVuSans-31" transform="translate(0 0.684375)"/>
       <use xlink:href="#DejaVuSans-30" transform="translate(63.623047 0.684375)"/>
       <use xlink:href="#DejaVuSans-2212" transform="translate(128.203125 38.965625) scale(0.7)"/>
       <use xlink:href="#DejaVuSans-31" transform="translate(186.855469 38.965625) scale(0.7)"/>
      </g>
     </g>
    </g>
    <g id="ytick_3">
     <g id="line2d_60">
      <path d="M 56.132054 150.547228 
L 493.2 150.547228 
" clip-path="url(#p30d128aefd)" style="fill: none; stroke-dasharray: 0.3,0.495; stroke-dashoffset: 0; stroke: #808080; stroke-width: 0.3"/>
     </g>
     <g id="line2d_61">
      <g>
       <use xlink:href="#mbcf2943483" x="56.132054" y="150.547228" style="stroke: #000000; stroke-width: 0.8"/>
      </g>
     </g>
     <g id="text_9">
      <!-- $\mathdefault{10^{0}}$ -->
      <g transform="translate(31.532054 154.346447) scale(0.1 -0.1)">
       <use xlink:href="#DejaVuSans-31" transform="translate(0 0.765625)"/>
       <use xlink:href="#DejaVuSans-30" transform="translate(63.623047 0.765625)"/>
       <use xlink:href="#DejaVuSans-30" transform="translate(128.203125 39.046875) scale(0.7)"/>
      </g>
     </g>
    </g>
    <g id="ytick_4">
     <g id="line2d_62">
      <path d="M 56.132054 95.13441 
L 493.2 95.13441 
" clip-path="url(#p30d128aefd)" style="fill: none; stroke-dasharray: 0.3,0.495; stroke-dashoffset: 0; stroke: #808080; stroke-width: 0.3"/>
     </g>
     <g id="line2d_63">
      <g>
       <use xlink:href="#mbcf2943483" x="56.132054" y="95.13441" style="stroke: #000000; stroke-width: 0.8"/>
      </g>
     </g>
     <g id="text_10">
      <!-- $\mathdefault{10^{1}}$ -->
      <g transform="translate(31.532054 98.933629) scale(0.1 -0.1)">
       <use xlink:href="#DejaVuSans-31" transform="translate(0 0.684375)"/>
       <use xlink:href="#DejaVuSans-30" transform="translate(63.623047 0.684375)"/>
       <use xlink:href="#DejaVuSans-31" transform="translate(128.203125 38.965625) scale(0.7)"/>
      </g>
     </g>
    </g>
    <g id="ytick_5">
     <g id="line2d_64">
      <path d="M 56.132054 39.721593 
L 493.2 39.721593 
" clip-path="url(#p30d128aefd)" style="fill: none; stroke-dasharray: 0.3,0.495; stroke-dashoffset: 0; stroke: #808080; stroke-width: 0.3"/>
     </g>
     <g id="line2d_65">
      <g>
       <use xlink:href="#mbcf2943483" x="56.132054" y="39.721593" style="stroke: #000000; stroke-width: 0.8"/>
      </g>
     </g>
     <g id="text_11">
      <!-- $\mathdefault{10^{2}}$ -->
      <g transform="translate(31.532054 43.520811) scale(0.1 -0.1)">
       <use xlink:href="#DejaVuSans-31" transform="translate(0 0.765625)"/>
       <use xlink:href="#DejaVuSans-30" transform="translate(63.623047 0.765625)"/>
       <use xlink:href="#DejaVuSans-32" transform="translate(128.203125 39.046875) scale(0.7)"/>
      </g>
     </g>
    </g>
    <g id="ytick_6">
     <g id="line2d_66">
      <defs>
       <path id="m89f7af594d" d="M 0 0 
L -2 0 
" style="stroke: #000000; stroke-width: 0.6"/>
      </defs>
      <g>
       <use xlink:href="#m89f7af594d" x="56.132054" y="300.104761" style="stroke: #000000; stroke-width: 0.6"/>
      </g>
     </g>
    </g>
    <g id="ytick_7">
     <g id="line2d_67">
      <g>
       <use xlink:href="#m89f7af594d" x="56.132054" y="290.347048" style="stroke: #000000; stroke-width: 0.6"/>
      </g>
     </g>
    </g>
    <g id="ytick_8">
     <g id="line2d_68">
      <g>
       <use xlink:href="#m89f7af594d" x="56.132054" y="283.423841" style="stroke: #000000; stroke-width: 0.6"/>
      </g>
     </g>
    </g>
    <g id="ytick_9">
     <g id="line2d_69">
      <g>
       <use xlink:href="#m89f7af594d" x="56.132054" y="278.053784" style="stroke: #000000; stroke-width: 0.6"/>
      </g>
     </g>
    </g>
    <g id="ytick_10">
     <g id="line2d_70">
      <g>
       <use xlink:href="#m89f7af594d" x="56.132054" y="273.666128" style="stroke: #000000; stroke-width: 0.6"/>
      </g>
     </g>
    </g>
    <g id="ytick_11">
     <g id="line2d_71">
      <g>
       <use xlink:href="#m89f7af594d" x="56.132054" y="269.956418" style="stroke: #000000; stroke-width: 0.6"/>
      </g>
     </g>
    </g>
    <g id="ytick_12">
     <g id="line2d_72">
      <g>
       <use xlink:href="#m89f7af594d" x="56.132054" y="266.742921" style="stroke: #000000; stroke-width: 0.6"/>
      </g>
     </g>
    </g>
    <g id="ytick_13">
     <g id="line2d_73">
      <g>
       <use xlink:href="#m89f7af594d" x="56.132054" y="263.908415" style="stroke: #000000; stroke-width: 0.6"/>
      </g>
     </g>
    </g>
    <g id="ytick_14">
     <g id="line2d_74">
      <g>
       <use xlink:href="#m89f7af594d" x="56.132054" y="244.691943" style="stroke: #000000; stroke-width: 0.6"/>
      </g>
     </g>
    </g>
    <g id="ytick_15">
     <g id="line2d_75">
      <g>
       <use xlink:href="#m89f7af594d" x="56.132054" y="234.934231" style="stroke: #000000; stroke-width: 0.6"/>
      </g>
     </g>
    </g>
    <g id="ytick_16">
     <g id="line2d_76">
      <g>
       <use xlink:href="#m89f7af594d" x="56.132054" y="228.011023" style="stroke: #000000; stroke-width: 0.6"/>
      </g>
     </g>
    </g>
    <g id="ytick_17">
     <g id="line2d_77">
      <g>
       <use xlink:href="#m89f7af594d" x="56.132054" y="222.640966" style="stroke: #000000; stroke-width: 0.6"/>
      </g>
     </g>
    </g>
    <g id="ytick_18">
     <g id="line2d_78">
      <g>
       <use xlink:href="#m89f7af594d" x="56.132054" y="218.25331" style="stroke: #000000; stroke-width: 0.6"/>
      </g>
     </g>
    </g>
    <g id="ytick_19">
     <g id="line2d_79">
      <g>
       <use xlink:href="#m89f7af594d" x="56.132054" y="214.5436" style="stroke: #000000; stroke-width: 0.6"/>
      </g>
     </g>
    </g>
    <g id="ytick_20">
     <g id="line2d_80">
      <g>
       <use xlink:href="#m89f7af594d" x="56.132054" y="211.330103" style="stroke: #000000; stroke-width: 0.6"/>
      </g>
     </g>
    </g>
    <g id="ytick_21">
     <g id="line2d_81">
      <g>
       <use xlink:href="#m89f7af594d" x="56.132054" y="208.495597" style="stroke: #000000; stroke-width: 0.6"/>
      </g>
     </g>
    </g>
    <g id="ytick_22">
     <g id="line2d_82">
      <g>
       <use xlink:href="#m89f7af594d" x="56.132054" y="189.279126" style="stroke: #000000; stroke-width: 0.6"/>
      </g>
     </g>
    </g>
    <g id="ytick_23">
     <g id="line2d_83">
      <g>
       <use xlink:href="#m89f7af594d" x="56.132054" y="179.521413" style="stroke: #000000; stroke-width: 0.6"/>
      </g>
     </g>
    </g>
    <g id="ytick_24">
     <g id="line2d_84">
      <g>
       <use xlink:href="#m89f7af594d" x="56.132054" y="172.598205" style="stroke: #000000; stroke-width: 0.6"/>
      </g>
     </g>
    </g>
    <g id="ytick_25">
     <g id="line2d_85">
      <g>
       <use xlink:href="#m89f7af594d" x="56.132054" y="167.228148" style="stroke: #000000; stroke-width: 0.6"/>
      </g>
     </g>
    </g>
    <g id="ytick_26">
     <g id="line2d_86">
      <g>
       <use xlink:href="#m89f7af594d" x="56.132054" y="162.840493" style="stroke: #000000; stroke-width: 0.6"/>
      </g>
     </g>
    </g>
    <g id="ytick_27">
     <g id="line2d_87">
      <g>
       <use xlink:href="#m89f7af594d" x="56.132054" y="159.130782" style="stroke: #000000; stroke-width: 0.6"/>
      </g>
     </g>
    </g>
    <g id="ytick_28">
     <g id="line2d_88">
      <g>
       <use xlink:href="#m89f7af594d" x="56.132054" y="155.917285" style="stroke: #000000; stroke-width: 0.6"/>
      </g>
     </g>
    </g>
    <g id="ytick_29">
     <g id="line2d_89">
      <g>
       <use xlink:href="#m89f7af594d" x="56.132054" y="153.08278" style="stroke: #000000; stroke-width: 0.6"/>
      </g>
     </g>
    </g>
    <g id="ytick_30">
     <g id="line2d_90">
      <g>
       <use xlink:href="#m89f7af594d" x="56.132054" y="133.866308" style="stroke: #000000; stroke-width: 0.6"/>
      </g>
     </g>
    </g>
    <g id="ytick_31">
     <g id="line2d_91">
      <g>
       <use xlink:href="#m89f7af594d" x="56.132054" y="124.108595" style="stroke: #000000; stroke-width: 0.6"/>
      </g>
     </g>
    </g>
    <g id="ytick_32">
     <g id="line2d_92">
      <g>
       <use xlink:href="#m89f7af594d" x="56.132054" y="117.185388" style="stroke: #000000; stroke-width: 0.6"/>
      </g>
     </g>
    </g>
    <g id="ytick_33">
     <g id="line2d_93">
      <g>
       <use xlink:href="#m89f7af594d" x="56.132054" y="111.815331" style="stroke: #000000; stroke-width: 0.6"/>
      </g>
     </g>
    </g>
    <g id="ytick_34">
     <g id="line2d_94">
      <g>
       <use xlink:href="#m89f7af594d" x="56.132054" y="107.427675" style="stroke: #000000; stroke-width: 0.6"/>
      </g>
     </g>
    </g>
    <g id="ytick_35">
     <g id="line2d_95">
      <g>
       <use xlink:href="#m89f7af594d" x="56.132054" y="103.717965" style="stroke: #000000; stroke-width: 0.6"/>
      </g>
     </g>
    </g>
    <g id="ytick_36">
     <g id="line2d_96">
      <g>
       <use xlink:href="#m89f7af594d" x="56.132054" y="100.504467" style="stroke: #000000; stroke-width: 0.6"/>
      </g>
     </g>
    </g>
    <g id="ytick_37">
     <g id="line2d_97">
      <g>
       <use xlink:href="#m89f7af594d" x="56.132054" y="97.669962" style="stroke: #000000; stroke-width: 0.6"/>
      </g>
     </g>
    </g>
    <g id="ytick_38">
     <g id="line2d_98">
      <g>
       <use xlink:href="#m89f7af594d" x="56.132054" y="78.45349" style="stroke: #000000; stroke-width: 0.6"/>
      </g>
     </g>
    </g>
    <g id="ytick_39">
     <g id="line2d_99">
      <g>
       <use xlink:href="#m89f7af594d" x="56.132054" y="68.695777" style="stroke: #000000; stroke-width: 0.6"/>
      </g>
     </g>
    </g>
    <g id="ytick_40">
     <g id="line2d_100">
      <g>
       <use xlink:href="#m89f7af594d" x="56.132054" y="61.77257" style="stroke: #000000; stroke-width: 0.6"/>
      </g>
     </g>
    </g>
    <g id="ytick_41">
     <g id="line2d_101">
      <g>
       <use xlink:href="#m89f7af594d" x="56.132054" y="56.402513" style="stroke: #000000; stroke-width: 0.6"/>
      </g>
     </g>
    </g>
    <g id="ytick_42">
     <g id="line2d_102">
      <g>
       <use xlink:href="#m89f7af594d" x="56.132054" y="52.014857" style="stroke: #000000; stroke-width: 0.6"/>
      </g>
     </g>
    </g>
    <g id="ytick_43">
     <g id="line2d_103">
      <g>
       <use xlink:href="#m89f7af594d" x="56.132054" y="48.305147" style="stroke: #000000; stroke-width: 0.6"/>
      </g>
     </g>
    </g>
    <g id="ytick_44">
     <g id="line2d_104">
      <g>
       <use xlink:href="#m89f7af594d" x="56.132054" y="45.09165" style="stroke: #000000; stroke-width: 0.6"/>
      </g>
     </g>
    </g>
    <g id="ytick_45">
     <g id="line2d_105">
      <g>
       <use xlink:href="#m89f7af594d" x="56.132054" y="42.257144" style="stroke: #000000; stroke-width: 0.6"/>
      </g>
     </g>
    </g>
    <g id="ytick_46">
     <g id="line2d_106">
      <g>
       <use xlink:href="#m89f7af594d" x="56.132054" y="23.040672" style="stroke: #000000; stroke-width: 0.6"/>
      </g>
     </g>
    </g>
    <g id="ytick_47">
     <g id="line2d_107">
      <g>
       <use xlink:href="#m89f7af594d" x="56.132054" y="13.28296" style="stroke: #000000; stroke-width: 0.6"/>
      </g>
     </g>
    </g>
    <g id="text_12">
     <!-- Voltaje de excitación [V] -->
     <g transform="translate(19.552366 223.464781) rotate(-90) scale(0.1 -0.1)">
      <defs>
       <path id="DejaVuSans-56" d="M 1831 0 
L 50 4666 
L 709 4666 
L 2188 738 
L 3669 4666 
L 4325 4666 
L 2547 0 
L 1831 0 
z
" transform="scale(0.015625)"/>
       <path id="DejaVuSans-6c" d="M 603 4863 
L 1178 4863 
L 1178 0 
L 603 0 
L 603 4863 
z
" transform="scale(0.015625)"/>
       <path id="DejaVuSans-6a" d="M 603 3500 
L 1178 3500 
L 1178 -63 
Q 1178 -731 923 -1031 
Q 669 -1331 103 -1331 
L -116 -1331 
L -116 -844 
L 38 -844 
Q 366 -844 484 -692 
Q 603 -541 603 -63 
L 603 3500 
z
M 603 4863 
L 1178 4863 
L 1178 4134 
L 603 4134 
L 603 4863 
z
" transform="scale(0.015625)"/>
      </defs>
      <use xlink:href="#DejaVuSans-56"/>
      <use xlink:href="#DejaVuSans-6f" transform="translate(60.658203 0)"/>
      <use xlink:href="#DejaVuSans-6c" transform="translate(121.839844 0)"/>
      <use xlink:href="#DejaVuSans-74" transform="translate(149.623047 0)"/>
      <use xlink:href="#DejaVuSans-61" transform="translate(188.832031 0)"/>
      <use xlink:href="#DejaVuSans-6a" transform="translate(250.111328 0)"/>
      <use xlink:href="#DejaVuSans-65" transform="translate(277.894531 0)"/>
      <use xlink:href="#DejaVuSans-20" transform="translate(339.417969 0)"/>
      <use xlink:href="#DejaVuSans-64" transform="translate(371.205078 0)"/>
      <use xlink:href="#DejaVuSans-65" transform="translate(434.681641 0)"/>
      <use xlink:href="#DejaVuSans-20" transform="translate(496.205078 0)"/>
      <use xlink:href="#DejaVuSans-65" transform="translate(527.992188 0)"/>
      <use xlink:href="#DejaVuSans-78" transform="translate(587.765625 0)"/>
      <use xlink:href="#DejaVuSans-63" transform="translate(645.195312 0)"/>
      <use xlink:href="#DejaVuSans-69" transform="translate(700.175781 0)"/>
      <use xlink:href="#DejaVuSans-74" transform="translate(727.958984 0)"/>
      <use xlink:href="#DejaVuSans-61" transform="translate(767.167969 0)"/>
      <use xlink:href="#DejaVuSans-63" transform="translate(828.447266 0)"/>
      <use xlink:href="#DejaVuSans-69" transform="translate(883.427734 0)"/>
      <use xlink:href="#DejaVuSans-f3" transform="translate(911.210938 0)"/>
      <use xlink:href="#DejaVuSans-6e" transform="translate(972.392578 0)"/>
      <use xlink:href="#DejaVuSans-20" transform="translate(1035.771484 0)"/>
      <use xlink:href="#DejaVuSans-5b" transform="translate(1067.558594 0)"/>
      <use xlink:href="#DejaVuSans-56" transform="translate(1106.572266 0)"/>
      <use xlink:href="#DejaVuSans-5d" transform="translate(1174.980469 0)"/>
     </g>
    </g>
   </g>
   <g id="line2d_108">
    <path d="M 387.60778 24.614909 
L 374.323494 24.712435 
L 361.950607 24.820337 
L 350.012361 24.965242 
L 337.367486 25.165016 
L 323.602381 25.413522 
L 310.145238 25.675553 
L 297.033161 25.963268 
L 284.462699 26.304709 
L 273.366217 26.747821 
L 263.651722 27.33633 
L 253.007031 28.570284 
L 246.235215 30.393053 
L 240.832853 33.182677 
L 237.271168 36.086265 
L 233.989144 39.088544 
L 225.47656 47.906704 
L 215.87216 58.292065 
L 206.677353 68.242685 
L 194.256067 82.514466 
L 179.934678 96.903361 
L 165.909647 111.295104 
L 152.58043 125.690076 
L 139.914257 140.085737 
L 130.784335 150.539125 
L 115.962172 168.898613 
L 105.101873 183.235853 
L 95.795869 197.640978 
L 90.044381 212.060472 
L 83.523149 226.49194 
L 75.998779 240.921235 
" clip-path="url(#p30d128aefd)" style="fill: none; stroke: #ff0000; stroke-width: 1.5; stroke-linecap: square"/>
   </g>
   <g id="line2d_109">
    <path d="M 393.808058 28.943212 
L 380.523772 29.041311 
L 368.150885 29.149571 
L 356.212639 29.294701 
L 343.567764 29.494498 
L 329.802659 29.74308 
L 316.345516 30.005351 
L 303.233439 30.293394 
L 290.662977 30.635091 
L 279.566495 31.078426 
L 269.852 31.666783 
L 259.207309 32.899791 
L 252.435493 34.720425 
L 247.033131 37.506199 
L 243.471446 40.410357 
L 240.189422 43.412638 
L 231.676838 52.231304 
L 222.072438 62.616412 
L 212.877631 72.567059 
L 200.456345 86.87423 
L 186.134956 101.263017 
L 172.109925 115.654631 
L 158.780708 130.049443 
L 146.114535 144.444914 
L 136.984613 154.89822 
L 122.16245 173.257309 
L 111.302151 187.594261 
L 101.996147 201.998999 
L 96.244659 216.417862 
L 89.723427 230.84879 
L 82.199057 245.278425 
" clip-path="url(#p30d128aefd)" style="fill: none; stroke: #0000ff; stroke-width: 1.5; stroke-linecap: square"/>
   </g>
   <g id="line2d_110">
    <path d="M 397.332569 31.4206 
L 384.048283 31.518858 
L 371.675396 31.627217 
L 359.737151 31.772404 
L 347.092275 31.97225 
L 333.32717 32.220892 
L 319.870028 32.483248 
L 306.75795 32.771389 
L 294.187488 33.113191 
L 283.091007 33.556625 
L 273.376511 34.145069 
L 262.731821 35.378161 
L 255.960004 37.198835 
L 250.557642 39.984626 
L 246.995958 42.888787 
L 243.713933 45.891065 
L 235.201349 54.709713 
L 225.596949 65.094785 
L 216.402142 75.045391 
L 203.980857 89.352455 
L 189.659467 103.741175 
L 175.634437 118.132707 
L 162.305219 132.527417 
L 149.639047 146.922768 
L 140.509125 157.375988 
L 125.686962 175.73486 
L 114.826662 190.07163 
L 105.520659 204.476121 
L 99.76917 218.894581 
L 93.247939 233.325162 
L 85.723568 247.755003 
" clip-path="url(#p30d128aefd)" style="fill: none; stroke: #008000; stroke-width: 1.5; stroke-linecap: square"/>
   </g>
   <g id="line2d_111">
    <path d="M 401.566222 34.395955 
L 388.281936 34.494473 
L 375.90905 34.602989 
L 363.970804 34.748269 
L 351.325929 34.94819 
L 337.560823 35.196927 
L 324.103681 35.459414 
L 310.991603 35.747704 
L 298.421142 36.089667 
L 287.32466 36.533253 
L 277.610164 37.121831 
L 266.965474 38.35505 
L 260.193657 40.175786 
L 254.791295 42.961604 
L 251.229611 45.865767 
L 247.947586 48.868042 
L 239.435003 57.686661 
L 229.830603 68.071679 
L 220.635796 78.022222 
L 208.21451 92.329122 
L 193.89312 106.71774 
L 179.86809 121.109146 
L 166.538872 135.5037 
L 153.8727 149.898867 
L 144.742778 160.351956 
L 129.920615 178.710493 
L 119.060315 193.046985 
L 109.754312 207.451098 
L 104.002823 221.868938 
L 97.481592 236.298979 
L 89.957221 250.729124 
" clip-path="url(#p30d128aefd)" style="fill: none; stroke: #ffa500; stroke-width: 1.5; stroke-linecap: square"/>
   </g>
   <g id="line2d_112">
    <path d="M 411.374054 41.287888 
L 398.089768 41.387188 
L 385.716881 41.496162 
L 373.778636 41.641708 
L 361.13376 41.841838 
L 347.368655 42.090832 
L 333.911512 42.353665 
L 320.799435 42.642351 
L 308.228973 42.98474 
L 297.132491 43.428725 
L 287.417996 44.017659 
L 276.773305 45.251214 
L 270.001489 47.072111 
L 264.599127 49.858001 
L 261.037442 52.762172 
L 257.755418 55.764437 
L 249.242834 64.582982 
L 239.638434 74.967857 
L 230.443627 84.918233 
L 218.022341 99.224701 
L 203.700952 113.613047 
L 189.675921 128.004121 
L 176.346704 142.398263 
L 163.680531 156.792945 
L 154.55061 167.245684 
L 139.728446 185.603338 
L 128.868147 199.939091 
L 119.562143 214.3422 
L 113.810655 228.758387 
L 107.289423 243.186967 
L 99.765053 257.617837 
" clip-path="url(#p30d128aefd)" style="fill: none; stroke: #800080; stroke-width: 1.5; stroke-linecap: square"/>
   </g>
   <g id="line2d_113">
    <path d="M 417.484474 45.580673 
L 404.200188 45.680664 
L 391.827301 45.790028 
L 379.889055 45.935794 
L 367.24418 46.136095 
L 353.479075 46.385289 
L 340.021932 46.648388 
L 326.909855 46.937376 
L 314.339393 47.280089 
L 303.242911 47.724379 
L 293.528416 48.313583 
L 282.883725 49.547394 
L 276.111909 51.368415 
L 270.709547 54.154358 
L 267.147862 57.058536 
L 263.865838 60.060793 
L 255.353254 68.879281 
L 245.748854 79.264047 
L 236.554047 89.214296 
L 224.132761 103.520435 
L 209.811372 117.908575 
L 195.786341 132.299396 
L 182.457124 146.693224 
L 169.790951 161.087536 
L 160.661029 171.540009 
L 145.838866 189.89699 
L 134.978567 204.232179 
L 125.672563 218.634518 
L 119.921075 233.049431 
L 113.399843 247.476865 
L 105.875473 261.908211 
" clip-path="url(#p30d128aefd)" style="fill: none; stroke: #a52a2a; stroke-width: 1.5; stroke-linecap: square"/>
   </g>
   <g id="line2d_114">
    <path d="M 425.032373 50.881022 
L 411.748087 50.982339 
L 399.3752 51.092431 
L 387.436955 51.238603 
L 374.792079 51.439205 
L 361.026974 51.688742 
L 347.569831 51.952287 
L 334.457754 52.24178 
L 321.887292 52.585031 
L 310.79081 53.029828 
L 301.076315 53.619479 
L 290.431624 54.853716 
L 283.659808 56.674941 
L 278.257446 59.460975 
L 274.695761 62.365162 
L 271.413737 65.367406 
L 262.901153 74.185801 
L 253.296753 84.570386 
L 244.101946 94.520424 
L 231.68066 108.826017 
L 217.359271 123.213814 
L 203.33424 137.604214 
L 190.005023 151.997522 
L 177.33885 166.391219 
L 168.208929 176.843249 
L 153.386765 195.199109 
L 142.526466 209.533356 
L 133.220462 223.934408 
L 127.468974 238.347177 
L 120.947742 252.77264 
L 113.423372 267.204634 
" clip-path="url(#p30d128aefd)" style="fill: none; stroke: #000000; stroke-width: 1.5; stroke-linecap: square"/>
   </g>
   <g id="line2d_115">
    <path d="M 435.404022 58.158949 
L 422.119736 58.263393 
L 409.746849 58.375134 
L 397.808604 58.522204 
L 385.163728 58.723444 
L 371.398623 58.973665 
L 357.94148 59.238069 
L 344.829403 59.528523 
L 332.258941 59.872798 
L 321.162459 60.318554 
L 311.447964 60.909056 
L 300.803273 62.144098 
L 294.031457 63.965712 
L 288.629095 66.751916 
L 285.06741 69.656122 
L 281.785386 72.658341 
L 273.272802 81.476558 
L 263.668402 91.860801 
L 254.473595 101.810439 
L 242.052309 116.114998 
L 227.73092 130.502143 
L 213.705889 144.891747 
L 200.376672 159.284066 
L 187.710499 173.676596 
L 178.580578 184.127785 
L 163.758414 202.481513 
L 152.898115 216.813961 
L 143.592111 231.212539 
L 137.840623 245.621146 
L 131.319391 260.042647 
L 123.795021 274.47538 
" clip-path="url(#p30d128aefd)" style="fill: none; stroke: #ffc0cb; stroke-width: 1.5; stroke-linecap: square"/>
   </g>
   <g id="line2d_116">
    <path d="M 449.111062 67.767932 
L 435.826776 67.879479 
L 423.453889 67.994813 
L 411.515644 68.143781 
L 398.870768 68.346302 
L 385.105663 68.597779 
L 371.64852 68.863679 
L 358.536443 69.155777 
L 345.965981 69.501788 
L 334.869499 69.94917 
L 325.155004 70.541108 
L 314.510313 71.777512 
L 307.738497 73.599781 
L 302.336135 76.386274 
L 298.77445 79.290511 
L 295.492426 82.292689 
L 286.979842 91.110605 
L 277.375442 101.494269 
L 268.180635 111.44323 
L 255.759349 125.74604 
L 241.43796 140.132085 
L 227.412929 154.520341 
L 214.083712 168.910985 
L 201.417539 183.301538 
L 192.287618 193.751297 
L 177.465455 212.101396 
L 166.605155 226.430759 
L 157.299151 240.825057 
L 151.547663 255.226335 
L 145.026431 269.640466 
L 137.502061 284.073003 
" clip-path="url(#p30d128aefd)" style="fill: none; stroke: #808080; stroke-width: 1.5; stroke-linecap: square"/>
   </g>
   <g id="line2d_117">
    <path d="M 473.333275 84.642874 
L 460.048989 84.803235 
L 447.676102 84.941961 
L 435.737857 85.102813 
L 423.092981 85.312654 
L 409.327876 85.570203 
L 395.870734 85.84243 
L 382.758656 86.141123 
L 370.188194 86.493961 
L 359.091713 86.947675 
L 349.377217 87.545198 
L 338.732527 88.786888 
L 331.96071 90.611699 
L 326.558348 93.39931 
L 322.996664 96.303668 
L 319.714639 99.305687 
L 311.202055 108.122432 
L 301.597655 118.503845 
L 292.402848 128.450178 
L 279.981563 142.746198 
L 265.660173 157.12796 
L 251.635142 171.510963 
L 238.305925 185.895072 
L 225.639753 200.277878 
L 216.509831 210.721999 
L 201.687668 229.05771 
L 190.827368 243.374582 
L 181.521364 257.751098 
L 175.769876 272.120487 
L 169.248644 286.498176 
L 161.724274 300.913091 
" clip-path="url(#p30d128aefd)" style="fill: none; stroke: #00ffff; stroke-width: 1.5; stroke-linecap: square"/>
   </g>
   <g id="patch_3">
    <path d="M 56.132054 314.728 
L 56.132054 10.8 
" style="fill: none; stroke: #000000; stroke-width: 0.8; stroke-linejoin: miter; stroke-linecap: square"/>
   </g>
   <g id="patch_4">
    <path d="M 493.2 314.728 
L 493.2 10.8 
" style="fill: none; stroke: #000000; stroke-width: 0.8; stroke-linejoin: miter; stroke-linecap: square"/>
   </g>
   <g id="patch_5">
    <path d="M 56.132054 314.728 
L 493.2 314.728 
" style="fill: none; stroke: #000000; stroke-width: 0.8; stroke-linejoin: miter; stroke-linecap: square"/>
   </g>
   <g id="patch_6">
    <path d="M 56.132054 10.8 
L 493.2 10.8 
" style="fill: none; stroke: #000000; stroke-width: 0.8; stroke-linejoin: miter; stroke-linecap: square"/>
   </g>
   <g id="legend_1">
    <g id="patch_7">
     <path d="M 60.332054 103.66875 
L 151.362366 103.66875 
Q 152.562366 103.66875 152.562366 102.46875 
L 152.562366 15 
Q 152.562366 13.8 151.362366 13.8 
L 60.332054 13.8 
Q 59.132054 13.8 59.132054 15 
L 59.132054 102.46875 
Q 59.132054 103.66875 60.332054 103.66875 
z
" style="fill: #ffffff; opacity: 0.8; stroke: #cccccc; stroke-linejoin: miter"/>
    </g>
    <g id="line2d_118">
     <path d="M 61.532054 18.659063 
L 67.532054 18.659063 
L 73.532054 18.659063 
" style="fill: none; stroke: #ff0000; stroke-width: 1.5; stroke-linecap: square"/>
    </g>
    <g id="text_13">
     <!-- S1-S5 (1200.0 : 4.9921) -->
     <g transform="translate(78.332054 20.759063) scale(0.06 -0.06)">
      <defs>
       <path id="DejaVuSans-53" d="M 3425 4513 
L 3425 3897 
Q 3066 4069 2747 4153 
Q 2428 4238 2131 4238 
Q 1616 4238 1336 4038 
Q 1056 3838 1056 3469 
Q 1056 3159 1242 3001 
Q 1428 2844 1947 2747 
L 2328 2669 
Q 3034 2534 3370 2195 
Q 3706 1856 3706 1288 
Q 3706 609 3251 259 
Q 2797 -91 1919 -91 
Q 1588 -91 1214 -16 
Q 841 59 441 206 
L 441 856 
Q 825 641 1194 531 
Q 1563 422 1919 422 
Q 2459 422 2753 634 
Q 3047 847 3047 1241 
Q 3047 1584 2836 1778 
Q 2625 1972 2144 2069 
L 1759 2144 
Q 1053 2284 737 2584 
Q 422 2884 422 3419 
Q 422 4038 858 4394 
Q 1294 4750 2059 4750 
Q 2388 4750 2728 4690 
Q 3069 4631 3425 4513 
z
" transform="scale(0.015625)"/>
       <path id="DejaVuSans-2d" d="M 313 2009 
L 1997 2009 
L 1997 1497 
L 313 1497 
L 313 2009 
z
" transform="scale(0.015625)"/>
       <path id="DejaVuSans-35" d="M 691 4666 
L 3169 4666 
L 3169 4134 
L 1269 4134 
L 1269 2991 
Q 1406 3038 1543 3061 
Q 1681 3084 1819 3084 
Q 2600 3084 3056 2656 
Q 3513 2228 3513 1497 
Q 3513 744 3044 326 
Q 2575 -91 1722 -91 
Q 1428 -91 1123 -41 
Q 819 9 494 109 
L 494 744 
Q 775 591 1075 516 
Q 1375 441 1709 441 
Q 2250 441 2565 725 
Q 2881 1009 2881 1497 
Q 2881 1984 2565 2268 
Q 2250 2553 1709 2553 
Q 1456 2553 1204 2497 
Q 953 2441 691 2322 
L 691 4666 
z
" transform="scale(0.015625)"/>
       <path id="DejaVuSans-28" d="M 1984 4856 
Q 1566 4138 1362 3434 
Q 1159 2731 1159 2009 
Q 1159 1288 1364 580 
Q 1569 -128 1984 -844 
L 1484 -844 
Q 1016 -109 783 600 
Q 550 1309 550 2009 
Q 550 2706 781 3412 
Q 1013 4119 1484 4856 
L 1984 4856 
z
" transform="scale(0.015625)"/>
       <path id="DejaVuSans-2e" d="M 684 794 
L 1344 794 
L 1344 0 
L 684 0 
L 684 794 
z
" transform="scale(0.015625)"/>
       <path id="DejaVuSans-3a" d="M 750 794 
L 1409 794 
L 1409 0 
L 750 0 
L 750 794 
z
M 750 3309 
L 1409 3309 
L 1409 2516 
L 750 2516 
L 750 3309 
z
" transform="scale(0.015625)"/>
       <path id="DejaVuSans-34" d="M 2419 4116 
L 825 1625 
L 2419 1625 
L 2419 4116 
z
M 2253 4666 
L 3047 4666 
L 3047 1625 
L 3713 1625 
L 3713 1100 
L 3047 1100 
L 3047 0 
L 2419 0 
L 2419 1100 
L 313 1100 
L 313 1709 
L 2253 4666 
z
" transform="scale(0.015625)"/>
       <path id="DejaVuSans-39" d="M 703 97 
L 703 672 
Q 941 559 1184 500 
Q 1428 441 1663 441 
Q 2288 441 2617 861 
Q 2947 1281 2994 2138 
Q 2813 1869 2534 1725 
Q 2256 1581 1919 1581 
Q 1219 1581 811 2004 
Q 403 2428 403 3163 
Q 403 3881 828 4315 
Q 1253 4750 1959 4750 
Q 2769 4750 3195 4129 
Q 3622 3509 3622 2328 
Q 3622 1225 3098 567 
Q 2575 -91 1691 -91 
Q 1453 -91 1209 -44 
Q 966 3 703 97 
z
M 1959 2075 
Q 2384 2075 2632 2365 
Q 2881 2656 2881 3163 
Q 2881 3666 2632 3958 
Q 2384 4250 1959 4250 
Q 1534 4250 1286 3958 
Q 1038 3666 1038 3163 
Q 1038 2656 1286 2365 
Q 1534 2075 1959 2075 
z
" transform="scale(0.015625)"/>
       <path id="DejaVuSans-29" d="M 513 4856 
L 1013 4856 
Q 1481 4119 1714 3412 
Q 1947 2706 1947 2009 
Q 1947 1309 1714 600 
Q 1481 -109 1013 -844 
L 513 -844 
Q 928 -128 1133 580 
Q 1338 1288 1338 2009 
Q 1338 2731 1133 3434 
Q 928 4138 513 4856 
z
" transform="scale(0.015625)"/>
      </defs>
      <use xlink:href="#DejaVuSans-53"/>
      <use xlink:href="#DejaVuSans-31" transform="translate(63.476562 0)"/>
      <use xlink:href="#DejaVuSans-2d" transform="translate(127.099609 0)"/>
      <use xlink:href="#DejaVuSans-53" transform="translate(163.183594 0)"/>
      <use xlink:href="#DejaVuSans-35" transform="translate(226.660156 0)"/>
      <use xlink:href="#DejaVuSans-20" transform="translate(290.283203 0)"/>
      <use xlink:href="#DejaVuSans-28" transform="translate(322.070312 0)"/>
      <use xlink:href="#DejaVuSans-31" transform="translate(361.083984 0)"/>
      <use xlink:href="#DejaVuSans-32" transform="translate(424.707031 0)"/>
      <use xlink:href="#DejaVuSans-30" transform="translate(488.330078 0)"/>
      <use xlink:href="#DejaVuSans-30" transform="translate(551.953125 0)"/>
      <use xlink:href="#DejaVuSans-2e" transform="translate(615.576172 0)"/>
      <use xlink:href="#DejaVuSans-30" transform="translate(647.363281 0)"/>
      <use xlink:href="#DejaVuSans-20" transform="translate(710.986328 0)"/>
      <use xlink:href="#DejaVuSans-3a" transform="translate(742.773438 0)"/>
      <use xlink:href="#DejaVuSans-20" transform="translate(776.464844 0)"/>
      <use xlink:href="#DejaVuSans-34" transform="translate(808.251953 0)"/>
      <use xlink:href="#DejaVuSans-2e" transform="translate(871.875 0)"/>
      <use xlink:href="#DejaVuSans-39" transform="translate(903.662109 0)"/>
      <use xlink:href="#DejaVuSans-39" transform="translate(967.285156 0)"/>
      <use xlink:href="#DejaVuSans-32" transform="translate(1030.908203 0)"/>
      <use xlink:href="#DejaVuSans-31" transform="translate(1094.53125 0)"/>
      <use xlink:href="#DejaVuSans-29" transform="translate(1158.154297 0)"/>
     </g>
    </g>
    <g id="line2d_119">
     <path d="M 61.532054 27.465938 
L 67.532054 27.465938 
L 73.532054 27.465938 
" style="fill: none; stroke: #0000ff; stroke-width: 1.5; stroke-linecap: square"/>
    </g>
    <g id="text_14">
     <!-- S2-S5 (1000.0 : 4.9907) -->
     <g transform="translate(78.332054 29.565938) scale(0.06 -0.06)">
      <defs>
       <path id="DejaVuSans-37" d="M 525 4666 
L 3525 4666 
L 3525 4397 
L 1831 0 
L 1172 0 
L 2766 4134 
L 525 4134 
L 525 4666 
z
" transform="scale(0.015625)"/>
      </defs>
      <use xlink:href="#DejaVuSans-53"/>
      <use xlink:href="#DejaVuSans-32" transform="translate(63.476562 0)"/>
      <use xlink:href="#DejaVuSans-2d" transform="translate(127.099609 0)"/>
      <use xlink:href="#DejaVuSans-53" transform="translate(163.183594 0)"/>
      <use xlink:href="#DejaVuSans-35" transform="translate(226.660156 0)"/>
      <use xlink:href="#DejaVuSans-20" transform="translate(290.283203 0)"/>
      <use xlink:href="#DejaVuSans-28" transform="translate(322.070312 0)"/>
      <use xlink:href="#DejaVuSans-31" transform="translate(361.083984 0)"/>
      <use xlink:href="#DejaVuSans-30" transform="translate(424.707031 0)"/>
      <use xlink:href="#DejaVuSans-30" transform="translate(488.330078 0)"/>
      <use xlink:href="#DejaVuSans-30" transform="translate(551.953125 0)"/>
      <use xlink:href="#DejaVuSans-2e" transform="translate(615.576172 0)"/>
      <use xlink:href="#DejaVuSans-30" transform="translate(647.363281 0)"/>
      <use xlink:href="#DejaVuSans-20" transform="translate(710.986328 0)"/>
      <use xlink:href="#DejaVuSans-3a" transform="translate(742.773438 0)"/>
      <use xlink:href="#DejaVuSans-20" transform="translate(776.464844 0)"/>
      <use xlink:href="#DejaVuSans-34" transform="translate(808.251953 0)"/>
      <use xlink:href="#DejaVuSans-2e" transform="translate(871.875 0)"/>
      <use xlink:href="#DejaVuSans-39" transform="translate(903.662109 0)"/>
      <use xlink:href="#DejaVuSans-39" transform="translate(967.285156 0)"/>
      <use xlink:href="#DejaVuSans-30" transform="translate(1030.908203 0)"/>
      <use xlink:href="#DejaVuSans-37" transform="translate(1094.53125 0)"/>
      <use xlink:href="#DejaVuSans-29" transform="translate(1158.154297 0)"/>
     </g>
    </g>
    <g id="line2d_120">
     <path d="M 61.532054 36.272813 
L 67.532054 36.272813 
L 73.532054 36.272813 
" style="fill: none; stroke: #008000; stroke-width: 1.5; stroke-linecap: square"/>
    </g>
    <g id="text_15">
     <!-- S3-S5 (900.0 : 4.9898) -->
     <g transform="translate(78.332054 38.372813) scale(0.06 -0.06)">
      <defs>
       <path id="DejaVuSans-38" d="M 2034 2216 
Q 1584 2216 1326 1975 
Q 1069 1734 1069 1313 
Q 1069 891 1326 650 
Q 1584 409 2034 409 
Q 2484 409 2743 651 
Q 3003 894 3003 1313 
Q 3003 1734 2745 1975 
Q 2488 2216 2034 2216 
z
M 1403 2484 
Q 997 2584 770 2862 
Q 544 3141 544 3541 
Q 544 4100 942 4425 
Q 1341 4750 2034 4750 
Q 2731 4750 3128 4425 
Q 3525 4100 3525 3541 
Q 3525 3141 3298 2862 
Q 3072 2584 2669 2484 
Q 3125 2378 3379 2068 
Q 3634 1759 3634 1313 
Q 3634 634 3220 271 
Q 2806 -91 2034 -91 
Q 1263 -91 848 271 
Q 434 634 434 1313 
Q 434 1759 690 2068 
Q 947 2378 1403 2484 
z
M 1172 3481 
Q 1172 3119 1398 2916 
Q 1625 2713 2034 2713 
Q 2441 2713 2670 2916 
Q 2900 3119 2900 3481 
Q 2900 3844 2670 4047 
Q 2441 4250 2034 4250 
Q 1625 4250 1398 4047 
Q 1172 3844 1172 3481 
z
" transform="scale(0.015625)"/>
      </defs>
      <use xlink:href="#DejaVuSans-53"/>
      <use xlink:href="#DejaVuSans-33" transform="translate(63.476562 0)"/>
      <use xlink:href="#DejaVuSans-2d" transform="translate(127.099609 0)"/>
      <use xlink:href="#DejaVuSans-53" transform="translate(163.183594 0)"/>
      <use xlink:href="#DejaVuSans-35" transform="translate(226.660156 0)"/>
      <use xlink:href="#DejaVuSans-20" transform="translate(290.283203 0)"/>
      <use xlink:href="#DejaVuSans-28" transform="translate(322.070312 0)"/>
      <use xlink:href="#DejaVuSans-39" transform="translate(361.083984 0)"/>
      <use xlink:href="#DejaVuSans-30" transform="translate(424.707031 0)"/>
      <use xlink:href="#DejaVuSans-30" transform="translate(488.330078 0)"/>
      <use xlink:href="#DejaVuSans-2e" transform="translate(551.953125 0)"/>
      <use xlink:href="#DejaVuSans-30" transform="translate(583.740234 0)"/>
      <use xlink:href="#DejaVuSans-20" transform="translate(647.363281 0)"/>
      <use xlink:href="#DejaVuSans-3a" transform="translate(679.150391 0)"/>
      <use xlink:href="#DejaVuSans-20" transform="translate(712.841797 0)"/>
      <use xlink:href="#DejaVuSans-34" transform="translate(744.628906 0)"/>
      <use xlink:href="#DejaVuSans-2e" transform="translate(808.251953 0)"/>
      <use xlink:href="#DejaVuSans-39" transform="translate(840.039062 0)"/>
      <use xlink:href="#DejaVuSans-38" transform="translate(903.662109 0)"/>
      <use xlink:href="#DejaVuSans-39" transform="translate(967.285156 0)"/>
      <use xlink:href="#DejaVuSans-38" transform="translate(1030.908203 0)"/>
      <use xlink:href="#DejaVuSans-29" transform="translate(1094.53125 0)"/>
     </g>
    </g>
    <g id="line2d_121">
     <path d="M 61.532054 45.079687 
L 67.532054 45.079687 
L 73.532054 45.079687 
" style="fill: none; stroke: #ffa500; stroke-width: 1.5; stroke-linecap: square"/>
    </g>
    <g id="text_16">
     <!-- S1-S4 (800.0 : 4.99) -->
     <g transform="translate(78.332054 47.179688) scale(0.06 -0.06)">
      <use xlink:href="#DejaVuSans-53"/>
      <use xlink:href="#DejaVuSans-31" transform="translate(63.476562 0)"/>
      <use xlink:href="#DejaVuSans-2d" transform="translate(127.099609 0)"/>
      <use xlink:href="#DejaVuSans-53" transform="translate(163.183594 0)"/>
      <use xlink:href="#DejaVuSans-34" transform="translate(226.660156 0)"/>
      <use xlink:href="#DejaVuSans-20" transform="translate(290.283203 0)"/>
      <use xlink:href="#DejaVuSans-28" transform="translate(322.070312 0)"/>
      <use xlink:href="#DejaVuSans-38" transform="translate(361.083984 0)"/>
      <use xlink:href="#DejaVuSans-30" transform="translate(424.707031 0)"/>
      <use xlink:href="#DejaVuSans-30" transform="translate(488.330078 0)"/>
      <use xlink:href="#DejaVuSans-2e" transform="translate(551.953125 0)"/>
      <use xlink:href="#DejaVuSans-30" transform="translate(583.740234 0)"/>
      <use xlink:href="#DejaVuSans-20" transform="translate(647.363281 0)"/>
      <use xlink:href="#DejaVuSans-3a" transform="translate(679.150391 0)"/>
      <use xlink:href="#DejaVuSans-20" transform="translate(712.841797 0)"/>
      <use xlink:href="#DejaVuSans-34" transform="translate(744.628906 0)"/>
      <use xlink:href="#DejaVuSans-2e" transform="translate(808.251953 0)"/>
      <use xlink:href="#DejaVuSans-39" transform="translate(840.039062 0)"/>
      <use xlink:href="#DejaVuSans-39" transform="translate(903.662109 0)"/>
      <use xlink:href="#DejaVuSans-29" transform="translate(967.285156 0)"/>
     </g>
    </g>
    <g id="line2d_122">
     <path d="M 61.532054 53.886563 
L 67.532054 53.886563 
L 73.532054 53.886563 
" style="fill: none; stroke: #800080; stroke-width: 1.5; stroke-linecap: square"/>
    </g>
    <g id="text_17">
     <!-- S2-S4 (600.0 : 4.9869) -->
     <g transform="translate(78.332054 55.986563) scale(0.06 -0.06)">
      <defs>
       <path id="DejaVuSans-36" d="M 2113 2584 
Q 1688 2584 1439 2293 
Q 1191 2003 1191 1497 
Q 1191 994 1439 701 
Q 1688 409 2113 409 
Q 2538 409 2786 701 
Q 3034 994 3034 1497 
Q 3034 2003 2786 2293 
Q 2538 2584 2113 2584 
z
M 3366 4563 
L 3366 3988 
Q 3128 4100 2886 4159 
Q 2644 4219 2406 4219 
Q 1781 4219 1451 3797 
Q 1122 3375 1075 2522 
Q 1259 2794 1537 2939 
Q 1816 3084 2150 3084 
Q 2853 3084 3261 2657 
Q 3669 2231 3669 1497 
Q 3669 778 3244 343 
Q 2819 -91 2113 -91 
Q 1303 -91 875 529 
Q 447 1150 447 2328 
Q 447 3434 972 4092 
Q 1497 4750 2381 4750 
Q 2619 4750 2861 4703 
Q 3103 4656 3366 4563 
z
" transform="scale(0.015625)"/>
      </defs>
      <use xlink:href="#DejaVuSans-53"/>
      <use xlink:href="#DejaVuSans-32" transform="translate(63.476562 0)"/>
      <use xlink:href="#DejaVuSans-2d" transform="translate(127.099609 0)"/>
      <use xlink:href="#DejaVuSans-53" transform="translate(163.183594 0)"/>
      <use xlink:href="#DejaVuSans-34" transform="translate(226.660156 0)"/>
      <use xlink:href="#DejaVuSans-20" transform="translate(290.283203 0)"/>
      <use xlink:href="#DejaVuSans-28" transform="translate(322.070312 0)"/>
      <use xlink:href="#DejaVuSans-36" transform="translate(361.083984 0)"/>
      <use xlink:href="#DejaVuSans-30" transform="translate(424.707031 0)"/>
      <use xlink:href="#DejaVuSans-30" transform="translate(488.330078 0)"/>
      <use xlink:href="#DejaVuSans-2e" transform="translate(551.953125 0)"/>
      <use xlink:href="#DejaVuSans-30" transform="translate(583.740234 0)"/>
      <use xlink:href="#DejaVuSans-20" transform="translate(647.363281 0)"/>
      <use xlink:href="#DejaVuSans-3a" transform="translate(679.150391 0)"/>
      <use xlink:href="#DejaVuSans-20" transform="translate(712.841797 0)"/>
      <use xlink:href="#DejaVuSans-34" transform="translate(744.628906 0)"/>
      <use xlink:href="#DejaVuSans-2e" transform="translate(808.251953 0)"/>
      <use xlink:href="#DejaVuSans-39" transform="translate(840.039062 0)"/>
      <use xlink:href="#DejaVuSans-38" transform="translate(903.662109 0)"/>
      <use xlink:href="#DejaVuSans-36" transform="translate(967.285156 0)"/>
      <use xlink:href="#DejaVuSans-39" transform="translate(1030.908203 0)"/>
      <use xlink:href="#DejaVuSans-29" transform="translate(1094.53125 0)"/>
     </g>
    </g>
    <g id="line2d_123">
     <path d="M 61.532054 62.693438 
L 67.532054 62.693438 
L 73.532054 62.693438 
" style="fill: none; stroke: #a52a2a; stroke-width: 1.5; stroke-linecap: square"/>
    </g>
    <g id="text_18">
     <!-- S3-S4 (500.0 : 4.9845) -->
     <g transform="translate(78.332054 64.793438) scale(0.06 -0.06)">
      <use xlink:href="#DejaVuSans-53"/>
      <use xlink:href="#DejaVuSans-33" transform="translate(63.476562 0)"/>
      <use xlink:href="#DejaVuSans-2d" transform="translate(127.099609 0)"/>
      <use xlink:href="#DejaVuSans-53" transform="translate(163.183594 0)"/>
      <use xlink:href="#DejaVuSans-34" transform="translate(226.660156 0)"/>
      <use xlink:href="#DejaVuSans-20" transform="translate(290.283203 0)"/>
      <use xlink:href="#DejaVuSans-28" transform="translate(322.070312 0)"/>
      <use xlink:href="#DejaVuSans-35" transform="translate(361.083984 0)"/>
      <use xlink:href="#DejaVuSans-30" transform="translate(424.707031 0)"/>
      <use xlink:href="#DejaVuSans-30" transform="translate(488.330078 0)"/>
      <use xlink:href="#DejaVuSans-2e" transform="translate(551.953125 0)"/>
      <use xlink:href="#DejaVuSans-30" transform="translate(583.740234 0)"/>
      <use xlink:href="#DejaVuSans-20" transform="translate(647.363281 0)"/>
      <use xlink:href="#DejaVuSans-3a" transform="translate(679.150391 0)"/>
      <use xlink:href="#DejaVuSans-20" transform="translate(712.841797 0)"/>
      <use xlink:href="#DejaVuSans-34" transform="translate(744.628906 0)"/>
      <use xlink:href="#DejaVuSans-2e" transform="translate(808.251953 0)"/>
      <use xlink:href="#DejaVuSans-39" transform="translate(840.039062 0)"/>
      <use xlink:href="#DejaVuSans-38" transform="translate(903.662109 0)"/>
      <use xlink:href="#DejaVuSans-34" transform="translate(967.285156 0)"/>
      <use xlink:href="#DejaVuSans-35" transform="translate(1030.908203 0)"/>
      <use xlink:href="#DejaVuSans-29" transform="translate(1094.53125 0)"/>
     </g>
    </g>
    <g id="line2d_124">
     <path d="M 61.532054 71.500313 
L 67.532054 71.500313 
L 73.532054 71.500313 
" style="fill: none; stroke: #000000; stroke-width: 1.5; stroke-linecap: square"/>
    </g>
    <g id="text_19">
     <!-- S4-S5 (400.0 : 4.9778) -->
     <g transform="translate(78.332054 73.600313) scale(0.06 -0.06)">
      <use xlink:href="#DejaVuSans-53"/>
      <use xlink:href="#DejaVuSans-34" transform="translate(63.476562 0)"/>
      <use xlink:href="#DejaVuSans-2d" transform="translate(127.099609 0)"/>
      <use xlink:href="#DejaVuSans-53" transform="translate(163.183594 0)"/>
      <use xlink:href="#DejaVuSans-35" transform="translate(226.660156 0)"/>
      <use xlink:href="#DejaVuSans-20" transform="translate(290.283203 0)"/>
      <use xlink:href="#DejaVuSans-28" transform="translate(322.070312 0)"/>
      <use xlink:href="#DejaVuSans-34" transform="translate(361.083984 0)"/>
      <use xlink:href="#DejaVuSans-30" transform="translate(424.707031 0)"/>
      <use xlink:href="#DejaVuSans-30" transform="translate(488.330078 0)"/>
      <use xlink:href="#DejaVuSans-2e" transform="translate(551.953125 0)"/>
      <use xlink:href="#DejaVuSans-30" transform="translate(583.740234 0)"/>
      <use xlink:href="#DejaVuSans-20" transform="translate(647.363281 0)"/>
      <use xlink:href="#DejaVuSans-3a" transform="translate(679.150391 0)"/>
      <use xlink:href="#DejaVuSans-20" transform="translate(712.841797 0)"/>
      <use xlink:href="#DejaVuSans-34" transform="translate(744.628906 0)"/>
      <use xlink:href="#DejaVuSans-2e" transform="translate(808.251953 0)"/>
      <use xlink:href="#DejaVuSans-39" transform="translate(840.039062 0)"/>
      <use xlink:href="#DejaVuSans-37" transform="translate(903.662109 0)"/>
      <use xlink:href="#DejaVuSans-37" transform="translate(967.285156 0)"/>
      <use xlink:href="#DejaVuSans-38" transform="translate(1030.908203 0)"/>
      <use xlink:href="#DejaVuSans-29" transform="translate(1094.53125 0)"/>
     </g>
    </g>
    <g id="line2d_125">
     <path d="M 61.532054 80.307188 
L 67.532054 80.307188 
L 73.532054 80.307188 
" style="fill: none; stroke: #ffc0cb; stroke-width: 1.5; stroke-linecap: square"/>
    </g>
    <g id="text_20">
     <!-- S1-S3 (300.0 : 4.9741) -->
     <g transform="translate(78.332054 82.407188) scale(0.06 -0.06)">
      <use xlink:href="#DejaVuSans-53"/>
      <use xlink:href="#DejaVuSans-31" transform="translate(63.476562 0)"/>
      <use xlink:href="#DejaVuSans-2d" transform="translate(127.099609 0)"/>
      <use xlink:href="#DejaVuSans-53" transform="translate(163.183594 0)"/>
      <use xlink:href="#DejaVuSans-33" transform="translate(226.660156 0)"/>
      <use xlink:href="#DejaVuSans-20" transform="translate(290.283203 0)"/>
      <use xlink:href="#DejaVuSans-28" transform="translate(322.070312 0)"/>
      <use xlink:href="#DejaVuSans-33" transform="translate(361.083984 0)"/>
      <use xlink:href="#DejaVuSans-30" transform="translate(424.707031 0)"/>
      <use xlink:href="#DejaVuSans-30" transform="translate(488.330078 0)"/>
      <use xlink:href="#DejaVuSans-2e" transform="translate(551.953125 0)"/>
      <use xlink:href="#DejaVuSans-30" transform="translate(583.740234 0)"/>
      <use xlink:href="#DejaVuSans-20" transform="translate(647.363281 0)"/>
      <use xlink:href="#DejaVuSans-3a" transform="translate(679.150391 0)"/>
      <use xlink:href="#DejaVuSans-20" transform="translate(712.841797 0)"/>
      <use xlink:href="#DejaVuSans-34" transform="translate(744.628906 0)"/>
      <use xlink:href="#DejaVuSans-2e" transform="translate(808.251953 0)"/>
      <use xlink:href="#DejaVuSans-39" transform="translate(840.039062 0)"/>
      <use xlink:href="#DejaVuSans-37" transform="translate(903.662109 0)"/>
      <use xlink:href="#DejaVuSans-34" transform="translate(967.285156 0)"/>
      <use xlink:href="#DejaVuSans-31" transform="translate(1030.908203 0)"/>
      <use xlink:href="#DejaVuSans-29" transform="translate(1094.53125 0)"/>
     </g>
    </g>
    <g id="line2d_126">
     <path d="M 61.532054 89.114063 
L 67.532054 89.114063 
L 73.532054 89.114063 
" style="fill: none; stroke: #808080; stroke-width: 1.5; stroke-linecap: square"/>
    </g>
    <g id="text_21">
     <!-- S1-S2 (200.0 : 4.9719) -->
     <g transform="translate(78.332054 91.214063) scale(0.06 -0.06)">
      <use xlink:href="#DejaVuSans-53"/>
      <use xlink:href="#DejaVuSans-31" transform="translate(63.476562 0)"/>
      <use xlink:href="#DejaVuSans-2d" transform="translate(127.099609 0)"/>
      <use xlink:href="#DejaVuSans-53" transform="translate(163.183594 0)"/>
      <use xlink:href="#DejaVuSans-32" transform="translate(226.660156 0)"/>
      <use xlink:href="#DejaVuSans-20" transform="translate(290.283203 0)"/>
      <use xlink:href="#DejaVuSans-28" transform="translate(322.070312 0)"/>
      <use xlink:href="#DejaVuSans-32" transform="translate(361.083984 0)"/>
      <use xlink:href="#DejaVuSans-30" transform="translate(424.707031 0)"/>
      <use xlink:href="#DejaVuSans-30" transform="translate(488.330078 0)"/>
      <use xlink:href="#DejaVuSans-2e" transform="translate(551.953125 0)"/>
      <use xlink:href="#DejaVuSans-30" transform="translate(583.740234 0)"/>
      <use xlink:href="#DejaVuSans-20" transform="translate(647.363281 0)"/>
      <use xlink:href="#DejaVuSans-3a" transform="translate(679.150391 0)"/>
      <use xlink:href="#DejaVuSans-20" transform="translate(712.841797 0)"/>
      <use xlink:href="#DejaVuSans-34" transform="translate(744.628906 0)"/>
      <use xlink:href="#DejaVuSans-2e" transform="translate(808.251953 0)"/>
      <use xlink:href="#DejaVuSans-39" transform="translate(840.039062 0)"/>
      <use xlink:href="#DejaVuSans-37" transform="translate(903.662109 0)"/>
      <use xlink:href="#DejaVuSans-31" transform="translate(967.285156 0)"/>
      <use xlink:href="#DejaVuSans-39" transform="translate(1030.908203 0)"/>
      <use xlink:href="#DejaVuSans-29" transform="translate(1094.53125 0)"/>
     </g>
    </g>
    <g id="line2d_127">
     <path d="M 61.532054 97.920938 
L 67.532054 97.920938 
L 73.532054 97.920938 
" style="fill: none; stroke: #00ffff; stroke-width: 1.5; stroke-linecap: square"/>
    </g>
    <g id="text_22">
     <!-- S2-S3 (100.0 : 4.9427) -->
     <g transform="translate(78.332054 100.020938) scale(0.06 -0.06)">
      <use xlink:href="#DejaVuSans-53"/>
      <use xlink:href="#DejaVuSans-32" transform="translate(63.476562 0)"/>
      <use xlink:href="#DejaVuSans-2d" transform="translate(127.099609 0)"/>
      <use xlink:href="#DejaVuSans-53" transform="translate(163.183594 0)"/>
      <use xlink:href="#DejaVuSans-33" transform="translate(226.660156 0)"/>
      <use xlink:href="#DejaVuSans-20" transform="translate(290.283203 0)"/>
      <use xlink:href="#DejaVuSans-28" transform="translate(322.070312 0)"/>
      <use xlink:href="#DejaVuSans-31" transform="translate(361.083984 0)"/>
      <use xlink:href="#DejaVuSans-30" transform="translate(424.707031 0)"/>
      <use xlink:href="#DejaVuSans-30" transform="translate(488.330078 0)"/>
      <use xlink:href="#DejaVuSans-2e" transform="translate(551.953125 0)"/>
      <use xlink:href="#DejaVuSans-30" transform="translate(583.740234 0)"/>
      <use xlink:href="#DejaVuSans-20" transform="translate(647.363281 0)"/>
      <use xlink:href="#DejaVuSans-3a" transform="translate(679.150391 0)"/>
      <use xlink:href="#DejaVuSans-20" transform="translate(712.841797 0)"/>
      <use xlink:href="#DejaVuSans-34" transform="translate(744.628906 0)"/>
      <use xlink:href="#DejaVuSans-2e" transform="translate(808.251953 0)"/>
      <use xlink:href="#DejaVuSans-39" transform="translate(840.039062 0)"/>
      <use xlink:href="#DejaVuSans-34" transform="translate(903.662109 0)"/>
      <use xlink:href="#DejaVuSans-32" transform="translate(967.285156 0)"/>
      <use xlink:href="#DejaVuSans-37" transform="translate(1030.908203 0)"/>
      <use xlink:href="#DejaVuSans-29" transform="translate(1094.53125 0)"/>
     </g>
    </g>
   </g>
  </g>
 </g>
 <defs>
  <clipPath id="p30d128aefd">
   <rect x="56.132054" y="10.8" width="437.067946" height="303.928"/>
  </clipPath>
 </defs>
</svg>
